<?xml version="1.0" encoding="UTF-8"?>
<svg width="76px" height="52px" viewBox="0 0 76 52" version="1.1" xmlns="http://www.w3.org/2000/svg" xmlns:xlink="http://www.w3.org/1999/xlink">
    <!-- Generator: Sketch 51.2 (57519) - http://www.bohemiancoding.com/sketch -->
    <title>computer - material</title>
    <desc>Created with Sketch.</desc>
    <defs></defs>
    <g id="Final" stroke="none" stroke-width="1" fill="none" fill-rule="evenodd">
        <g id="Email-Myself---Continue-Booking" transform="translate(-150.000000, -217.000000)" fill="#000000">
            <path d="M162.66,224.032934 L162.66,255.594132 L213.34,255.594132 L213.34,224.032934 L162.66,224.032934 Z M213.34,261.967066 L225.934132,261.967066 L225.934132,268.34 L150.065868,268.34 L150.065868,261.967066 L162.66,261.967066 C160.940311,261.967066 159.473539,261.334837 158.259641,260.070359 C157.045742,258.805882 156.438802,257.313821 156.438802,255.594132 L156.438802,224.032934 C156.438802,222.313245 157.045742,220.821184 158.259641,219.556707 C159.473539,218.292229 160.940311,217.66 162.66,217.66 L213.34,217.66 C215.059689,217.66 216.526461,218.292229 217.740359,219.556707 C218.954258,220.821184 219.561198,222.313245 219.561198,224.032934 L219.561198,255.594132 C219.561198,257.313821 218.954258,258.805882 217.740359,260.070359 C216.526461,261.334837 215.059689,261.967066 213.34,261.967066 Z" id="computer---material"></path>
        </g>
    </g>
</svg>