<?xml version="1.0" encoding="UTF-8"?>
<svg width="14px" height="18px" viewBox="0 0 14 18" version="1.1" xmlns="http://www.w3.org/2000/svg" xmlns:xlink="http://www.w3.org/1999/xlink">
    <!-- Generator: Sketch 50.2 (55047) - http://www.bohemiancoding.com/sketch -->
    <title>483610</title>
    <desc>Created with Sketch.</desc>
    <defs></defs>
    <g id="Final" stroke="none" stroke-width="1" fill="none" fill-rule="evenodd">
        <g id="Group-4" transform="translate(-3.000000, -1.000000)" fill="#FF3157" fill-rule="nonzero">
            <g id="Group-3">
                <g id="483610" transform="translate(3.000000, 1.000000)">
                    <path d="M13.2221999,3.62074219 L13.2221999,2.04138281 C13.6848914,1.78126172 13.9999635,1.30285547 13.9999635,0.749988281 L13.9999635,0.375011719 C13.9999635,0.167730469 13.8260213,0 13.6110635,0 L0.388900029,0 C0.173942255,0 0,0.167730469 0,0.375011719 L0,0.750023438 C0,1.30285547 0.315072096,1.78126172 0.7777636,2.04141797 L0.7777636,3.62074219 C0.7777636,5.10683203 1.43477751,6.52918359 2.58018599,7.52308594 L4.28194718,9 L2.58018599,10.4769141 C1.43477751,11.4708164 0.7777636,12.893168 0.7777636,14.3792578 L0.7777636,15.958582 C0.315072096,16.2187383 0,16.6971445 0,17.2500117 L0,17.6250234 C0,17.8322695 0.173942255,18 0.388900029,18 L13.6111,18 C13.8260577,18 14,17.8322695 14,17.6249883 L14,17.2499766 C14,16.6971445 13.6849279,16.2187383 13.2222364,15.958582 L13.2222364,14.3792578 C13.2222364,12.893168 12.5652225,11.4708164 11.419814,10.4769141 L9.71801636,9 L11.4197776,7.52308594 C12.565186,6.52918359 13.2221999,5.10679687 13.2221999,3.62074219 Z M10.379223,6.40831641 L8.03524991,8.44263281 C7.87118784,8.58473438 7.77774537,8.78723438 7.77774537,9 C7.77774537,9.21276563 7.87118784,9.41530078 8.03524991,9.55736719 L10.379223,11.5916836 C11.1972365,12.3017695 11.6666363,13.3179961 11.6666363,14.3792578 L11.6666363,15.75 L10.6942222,15.75 L7.311007,11.4001523 C7.16440843,11.2111875 6.83551866,11.2111875 6.68892008,11.4001523 L3.30574139,15.75 L2.33332726,15.75 L2.33332726,14.3792578 C2.33332726,13.3179609 2.80272708,12.3017344 3.62077703,11.5916484 L5.96475009,9.55733203 C6.12881216,9.41523047 6.22225463,9.21273047 6.22225463,8.99996484 C6.22225463,8.78719922 6.12881216,8.58466406 5.96475009,8.44259766 L3.62077703,6.40828125 C2.80272708,5.69823047 2.33332726,4.68200391 2.33332726,3.62074219 L2.33332726,2.25 L11.6666363,2.25 L11.6666363,3.62074219 C11.6666363,4.68200391 11.1972365,5.69823047 10.379223,6.40831641 Z" id="Shape"></path>
                    <path d="M9.61997717,5 L4.3800427,5 C4.2297062,5 4.09348044,5.08382427 4.03261892,5.21356674 C3.9717574,5.34367952 3.99734205,5.49516916 4.09868289,5.60037031 L6.74519687,7.90708635 C6.81756791,7.96916344 6.90889582,8 7.0001881,8 C7.09148038,8 7.18280829,7.96912978 7.25517934,7.90708635 L9.90130135,5.60037031 C10.0026422,5.49516916 10.0282625,5.34367952 9.96736531,5.21356674 C9.90653943,5.08382427 9.77031367,5 9.61997717,5 Z" id="Shape"></path>
                </g>
            </g>
        </g>
    </g>
</svg>