<?xml version="1.0" encoding="UTF-8"?>
<svg width="18px" height="18px" viewBox="0 0 18 18" version="1.1" xmlns="http://www.w3.org/2000/svg" xmlns:xlink="http://www.w3.org/1999/xlink">
    <!-- Generator: Sketch 50.2 (55047) - http://www.bohemiancoding.com/sketch -->
    <title>ion-android-alarm-clock - Ionicons</title>
    <desc>Created with Sketch.</desc>
    <defs></defs>
    <g id="Final" stroke="none" stroke-width="1" fill="none" fill-rule="evenodd">
        <path d="M17.859375,3.46338347 L16.6910047,4.84039136 L12.6017085,1.4187354 L13.7700789,0.0417275117 L17.859375,3.46338347 Z M5.21593896,1.37700789 L1.16837033,4.84039136 L0,3.46338347 L4.04756863,0 L5.21593896,1.37700789 Z M9.38869013,5.46630403 L9.38869013,10.0980578 L12.9355286,12.1844334 L12.2678884,13.3110762 L8.05340975,10.765698 L8.05340975,5.46630403 L9.38869013,5.46630403 Z M3.2130184,4.25620619 C4.79867177,2.6983713 6.70420908,1.91946554 8.9296875,1.91946554 C11.1551659,1.91946554 13.0537487,2.6983713 14.6254928,4.25620619 C16.197237,5.81404108 16.9830973,7.69176033 16.9830973,9.88942027 C16.9830973,12.0870802 16.197237,13.9647995 14.6254928,15.5226343 C13.0537487,17.0804692 11.1551659,17.859375 8.9296875,17.859375 C6.70420908,17.859375 4.80562629,17.0804692 3.23388216,15.5226343 C1.66213802,13.9647995 0.876277745,12.0870802 0.876277745,9.88942027 C0.876277745,7.69176033 1.65518351,5.81404108 3.2130184,4.25620619 Z M4.50657126,14.270809 C5.73058439,15.4948221 7.20494173,16.1068195 8.9296875,16.1068195 C10.6544333,16.1068195 12.1287906,15.5017766 13.3528037,14.2916728 C14.5768169,13.0815689 15.1888143,11.614166 15.1888143,9.88942027 C15.1888143,8.19249298 14.5768169,6.73204467 13.3528037,5.50803154 C12.1287906,4.28401841 10.6544333,3.67202103 8.9296875,3.67202103 C7.20494173,3.67202103 5.73058439,4.28401841 4.50657126,5.50803154 C3.28255813,6.73204467 2.67056075,8.19249298 2.67056075,9.88942027 C2.67056075,11.5863476 3.28255813,13.0467959 4.50657126,14.270809 Z" id="ion-android-alarm-clock---Ionicons" fill="#FF3157"></path>
    </g>
</svg>